<svg xmlns="http://www.w3.org/2000/svg" viewBox="0 0 400 400">
  <defs>
    <linearGradient id="bg" x1="0" y1="0" x2="0" y2="1">
      <stop offset="0%" stop-color="#f0ebe2"/>
      <stop offset="100%" stop-color="#e5ddd0"/>
    </linearGradient>
    <linearGradient id="platter-face" x1="0" y1="0" x2="0" y2="1">
      <stop offset="0%" stop-color="#f8f2e8"/>
      <stop offset="100%" stop-color="#eee5d5"/>
    </linearGradient>
  </defs>
  <rect width="400" height="400" fill="url(#bg)" rx="12"/>
  <!-- Shadow -->
  <ellipse cx="200" cy="302" rx="157" ry="36" fill="#d4c8b5" opacity="0.35"/>
  <!-- Platter edge -->
  <ellipse cx="200" cy="242" rx="162" ry="67" fill="#c8b8a0"/>
  <!-- Platter face -->
  <ellipse cx="200" cy="237" rx="162" ry="67" fill="url(#platter-face)"/>
  <!-- Inner rim -->
  <ellipse cx="200" cy="237" rx="137" ry="54" fill="none" stroke="#d8ccba" stroke-width="1.5"/>
  <!-- Botanical design - stem -->
  <path d="M162 262 Q200 202 238 252" stroke="#7a9e6a" stroke-width="2" fill="none"/>
  <path d="M200 217 L200 267" stroke="#7a9e6a" stroke-width="1.5" fill="none"/>
  <!-- Leaves -->
  <path d="M200 232 Q180 220 170 227 Q178 237 200 232" fill="#8bae78" opacity="0.7"/>
  <path d="M200 232 Q220 220 230 227 Q222 237 200 232" fill="#7a9e6a" opacity="0.7"/>
  <path d="M175 252 Q165 240 158 247 Q164 254 175 252" fill="#8bae78" opacity="0.6"/>
  <path d="M225 250 Q235 238 242 244 Q236 254 225 250" fill="#7a9e6a" opacity="0.6"/>
  <!-- Small flowers -->
  <circle cx="185" cy="240" r="4" fill="#d4a0a0" opacity="0.6"/>
  <circle cx="215" cy="238" r="3.5" fill="#c8908e" opacity="0.6"/>
  <circle cx="200" cy="254" r="3" fill="#d4a0a0" opacity="0.5"/>
  <!-- Flower centers -->
  <circle cx="185" cy="240" r="1.5" fill="#b87878"/>
  <circle cx="215" cy="238" r="1.5" fill="#b87878"/>
  <circle cx="200" cy="254" r="1.2" fill="#b87878"/>
  <!-- Small dots/berries -->
  <circle cx="170" cy="247" r="2" fill="#8bae78" opacity="0.5"/>
  <circle cx="232" cy="245" r="2" fill="#8bae78" opacity="0.5"/>
  <circle cx="195" cy="262" r="1.5" fill="#7a9e6a" opacity="0.4"/>
  <circle cx="208" cy="260" r="1.5" fill="#7a9e6a" opacity="0.4"/>
  <!-- Label -->
  <text x="200" y="368" text-anchor="middle" font-family="Georgia, serif" font-size="14" fill="#8b7e6a" letter-spacing="2">SERVING PLATTER</text>
</svg>